<?xml version="1.0" encoding="UTF-8"?>
<svg width="32" height="32" version="1.1" viewBox="0 0 32 32" xml:space="preserve" xmlns="http://www.w3.org/2000/svg"><g transform="matrix(.50794 0 0 .50794 43.292 12.009)"><path transform="matrix(3.7795 0 0 3.7795 128.82 -539.1)" d="m-55.531 153.05.04656-16.669 14.412 8.3747-7.2294 4.147z" fill="#0067b9"/></g><g transform="matrix(1.25 0 0 1.25 -5.7266 -7.2105)"><g transform="matrix(.065574 0 0 .065574 -2.0179 -23.652)" fill="#fff" stroke="#fff" stroke-width="24.4">
	<path d="m448.5 754.38c-8.944-3.663-12.77-8.524-12.4-15.777 0.381-8.466-4.422-14.667-6.703-17.117 1.378-5.264-12.827-16.951-18.228-32.768-5.804-16.93-20.68-44.627-38.964-70.044-7.485-10.438-6.8354-29.478-7.2444-42.616-0.392-12.531 13.551-23.724 6.5628-39.514-7.598-17.193-22.844-27.052-41.831-27.052-11.295 0-22.889 3.53-31.811 9.684-18.27 12.609-15.855 40.1-14.257 58.291 0.219 2.491 0.425 4.844 0.545 6.853 1.064 17.816 0.096 27.206-1.17 30.06-0.819 1.865-4.851 7.173-9.118 12.793-4.413 5.812-9.416 12.4-13.517 18.539-4.893 7.387-8.843 18.678-12.663 29.597-2.795 7.99-5.435 15.537-8.005 20.047-4.871 8.676-3.659 16.766-2.647 20.505-1.844 1.281-4.508 3.803-6.757 8.557-2.718 5.8-8.233 8.917-19.701 11.122-5.27 1.078-8.904 3.294-10.804 6.586-2.765 4.791-1.259 10.811 0.115 14.925 2.03 6.048 0.765 9.876-1.535 16.826-0.53 1.604-1.131 3.42-1.74 5.423-0.959 3.161-0.613 6.035 1.026 8.542 4.331 6.621 16.969 8.956 29.979 10.492 7.768 0.922 16.27 4.029 24.493 7.035 8.057 2.944 16.388 5.989 23.961 6.913 1.151 0.145 2.291 0.218 3.39 0.218 11.434 0 16.6-7.587 18.238-10.704 4.107-0.838 18.272-3.522 32.871-3.882 14.576-0.416 28.679 2.462 32.674 3.357 1.256 2.404 4.567 7.895 9.845 10.724 2.901 1.586 6.938 2.495 11.073 2.495h1e-3c4.416 0 12.817-1.044 19.466-8.039 6.632-7.028 23.202-16 35.302-22.551 2.7-1.462 5.226-2.83 7.441-4.065 6.797-3.768 10.506-9.152 10.175-14.771-0.276-4.667-3.365-8.761-8.062-10.684z" fill="#fff" stroke="#fff" stroke-width="24.4"/>
</g><g fill="#f0d73f" stroke="#f0d73f" stroke-width=".5"><path transform="matrix(.8 0 0 .8 4.5813 5.7684)" d="m17.518 13.158c-0.02673-0.0086-0.07908-0.03137-0.11634-0.05061-0.08483-0.04381-0.54535-0.3523-0.64942-0.43503-0.18112-0.14398-0.45565-0.43727-0.45565-0.48678 0-0.0079 0.10688-0.09996 0.23752-0.20453 0.13064-0.10457 0.32914-0.26935 0.44111-0.36617 0.3303-0.2856 0.58518-0.45221 0.75723-0.495 0.08103-0.02015 0.10657-0.01607 0.31023 0.04956 0.29379 0.09468 1.3684 0.51328 1.5404 0.60003 0.07465 0.03765 0.16591 0.09361 0.2028 0.12434 0.0861 0.07172 0.07492 0.08598-0.17118 0.21854-0.1027 0.05532-0.38305 0.218-0.62299 0.36152-0.5027 0.30068-0.98109 0.56231-1.1567 0.63262-0.14071 0.05633-0.2479 0.07375-0.31701 0.05152z"/><path transform="matrix(.8 0 0 .8 4.5813 5.7684)" d="m23.305 28.7c-0.06438-0.02805-0.17348-0.11527-0.24245-0.19382-0.31271-0.35616-0.34631-0.73321-0.15068-1.6911 0.2514-1.2309 0.29939-1.7759 0.24418-2.7727-0.02218-0.4004-0.04795-1.0728-4.41e-4 -0.89077 0.15062 0.57699 0.48107 1.5186 1.0433 1.6084 0.39704 0.06343 0.9659-0.04536 1.4103-0.2697 0.29155-0.14718 0.44459-0.27852 0.6506-0.55836l0.16762-0.2277v0.28696c0 0.49768 0.16975 0.96694 0.46608 1.2884 0.08533 0.09257 0.30424 0.24688 0.50337 0.35483 0.1938 0.10506 0.39715 0.23775 0.45188 0.29488l0.09951 0.10386-0.15499 0.09784c-0.08524 0.05381-0.5365 0.29696-1.0028 0.54033-1.2704 0.66305-1.4476 0.7786-2.027 1.3215-0.37225 0.34877-0.69363 0.56854-0.99787 0.68237-0.24396 0.09128-0.30095 0.09434-0.46057 0.02479z"/><path transform="matrix(.8 0 0 .8 4.5813 5.7684)" d="m13.941 28.614c-0.40916-0.10794-0.95503-0.29932-1.6481-0.57784-0.76402-0.30703-0.90082-0.34353-1.9583-0.52261-0.78295-0.13259-1.1562-0.21724-1.2312-0.27927-0.074697-0.06173-0.059739-0.17422 0.089598-0.67384 0.17178-0.57468 0.20378-0.93774 0.11885-1.3483-0.034665-0.16758-0.063028-0.37063-0.063028-0.45123 0-0.12744 0.016434-0.1542 0.12603-0.20527 0.069317-0.0323 0.29181-0.09721 0.49443-0.14426 1.0994-0.25526 1.241-0.35075 1.6091-1.0856 0.18918-0.37762 0.28068-0.50412 0.36464-0.50412 0.12429 0 0.43264 0.23959 0.66827 0.51927 0.12776 0.15163 0.46938 0.66833 0.75916 1.1482 0.69316 1.1479 1.0351 1.6647 1.3352 2.0181 0.45233 0.53259 0.61514 0.85353 0.61514 1.2126 0 0.26923-0.11365 0.48414-0.3926 0.7424-0.22707 0.21023-0.23723 0.21497-0.45304 0.21153-0.12142-0.0019-0.31674-0.02884-0.43405-0.05979z"/></g><g id="XMLID_91_" transform="matrix(.065574 0 0 .065574 9.3817 9.7573)">
	<path id="XMLID_92_" d="m274.66 244.89c-8.944-3.663-12.77-8.524-12.4-15.777 0.381-8.466-4.422-14.667-6.703-17.117 1.378-5.264 5.405-23.474 4e-3 -39.291-5.804-16.93-23.524-42.787-41.808-68.204-7.485-10.438-7.839-21.784-8.248-34.922-0.392-12.531-0.834-26.735-7.822-42.525-7.598-17.193-22.844-27.052-41.831-27.052-11.295 0-22.889 3.53-31.811 9.684-18.27 12.609-15.855 40.1-14.257 58.291 0.219 2.491 0.425 4.844 0.545 6.853 1.064 17.816 0.096 27.206-1.17 30.06-0.819 1.865-4.851 7.173-9.118 12.793-4.413 5.812-9.416 12.4-13.517 18.539-4.893 7.387-8.843 18.678-12.663 29.597-2.795 7.99-5.435 15.537-8.005 20.047-4.871 8.676-3.659 16.766-2.647 20.505-1.844 1.281-4.508 3.803-6.757 8.557-2.718 5.8-8.233 8.917-19.701 11.122-5.27 1.078-8.904 3.294-10.804 6.586-2.765 4.791-1.259 10.811 0.115 14.925 2.03 6.048 0.765 9.876-1.535 16.826-0.53 1.604-1.131 3.42-1.74 5.423-0.959 3.161-0.613 6.035 1.026 8.542 4.331 6.621 16.969 8.956 29.979 10.492 7.768 0.922 16.27 4.029 24.493 7.035 8.057 2.944 16.388 5.989 23.961 6.913 1.151 0.145 2.291 0.218 3.39 0.218 11.434 0 16.6-7.587 18.238-10.704 4.107-0.838 18.272-3.522 32.871-3.882 14.576-0.416 28.679 2.462 32.674 3.357 1.256 2.404 4.567 7.895 9.845 10.724 2.901 1.586 6.938 2.495 11.073 2.495h1e-3c4.416 0 12.817-1.044 19.466-8.039 6.632-7.028 23.202-16 35.302-22.551 2.7-1.462 5.226-2.83 7.441-4.065 6.797-3.768 10.506-9.152 10.175-14.771-0.276-4.667-3.365-8.761-8.062-10.684zm-150.47-1.353c-0.846-5.96-8.513-11.871-17.392-18.715-7.26-5.597-15.489-11.94-17.756-17.312-4.685-11.082-0.992-30.568 5.447-40.602 3.182-5.024 5.781-12.643 8.295-20.011 2.714-7.956 5.521-16.182 8.66-19.783 4.971-5.622 9.565-16.561 10.379-25.182 4.655 4.444 11.876 10.083 18.547 10.083 1.027 0 2.024-0.134 2.977-0.403 4.564-1.318 11.277-5.197 17.769-8.947 5.597-3.234 12.499-7.222 15.096-7.585 4.453 6.394 30.328 63.655 32.972 82.044 2.092 14.55-0.118 26.578-1.229 31.289-0.894-0.122-1.96-0.221-3.08-0.221-7.207 0-9.115 3.934-9.612 6.283-1.278 6.103-1.413 25.618-1.427 30.003-2.606 3.311-15.785 18.903-34.706 21.706-7.707 1.12-14.904 1.688-21.39 1.688-5.544 0-9.082-0.428-10.551-0.651l-9.508-10.879c3.749-1.851 7.497-5.757 6.509-12.805zm12.065-179.39c-0.297 0.128-0.589 0.265-0.876 0.411-0.029-0.644-0.096-1.297-0.199-1.952-1.038-5.975-5-10.312-9.419-10.312-0.327 0-0.656 0.025-1.017 0.08-2.629 0.438-4.691 2.413-5.821 5.213 0.991-6.144 4.472-10.693 8.602-10.693 4.85 0 8.947 6.536 8.947 14.272 0 0.975-0.071 1.945-0.217 2.981zm37.686 4.607c0.444-1.414 0.684-2.944 0.684-4.532 0-7.014-4.45-12.509-10.131-12.509-5.552 0-10.069 5.611-10.069 12.509 0 0.47 0.023 0.941 0.067 1.411-0.294-0.113-0.581-0.223-0.861-0.329-0.639-1.935-0.962-3.954-0.962-6.015 0-8.387 5.36-15.211 11.95-15.211 6.589 0 11.95 6.824 11.95 15.211 0 3.489-0.963 6.819-2.628 9.465zm-4.859 16.324c-0.095 0.424-0.297 0.612-2.531 1.774-1.128 0.587-2.532 1.318-4.289 2.388l-1.174 0.711c-4.718 2.86-15.765 9.559-18.764 9.952-2.037 0.274-3.297-0.516-6.13-2.441-0.639-0.435-1.319-0.897-2.044-1.362-5.107-3.351-8.392-7.042-8.763-8.485 1.665-1.287 5.792-4.508 7.905-6.415 4.289-3.988 8.605-6.668 10.741-6.668 0.113 0 0.215 8e-3 0.321 0.028 2.51 0.443 8.701 2.914 13.223 4.718 2.09 0.834 3.895 1.554 5.165 2.01 4.001 1.374 6.087 3.132 6.34 3.79zm35.947 186.37c2.257-10.181 4.857-24.031 4.436-32.196-0.097-1.855-0.261-3.874-0.42-5.826-0.297-3.65-0.738-9.075-0.283-10.684 0.09-0.042 0.19-0.078 0.301-0.109 0.019 4.668 1.033 13.979 8.479 17.226 2.219 0.968 4.755 1.458 7.537 1.458 7.459 0 15.735-3.659 19.125-7.049 1.996-1.996 3.675-4.438 4.851-6.372 0.257 0.753 0.415 1.737 0.332 3.005-0.443 6.885 2.903 16.019 9.271 19.385l0.927 0.487c2.268 1.19 8.292 4.353 8.389 5.853-1e-3 1e-3 -0.051 0.177-0.387 0.489-1.509 1.379-6.82 4.091-11.956 6.714-9.111 4.652-19.438 9.925-24.076 14.803-6.53 6.872-13.916 11.488-18.376 11.488-0.537 0-1.026-0.068-1.461-0.206-4.844-1.51-8.831-8.499-6.689-18.466zm-165.11-25.973c-0.494-2.312-0.884-4.137-0.465-5.905 0.304-1.31 6.771-2.714 9.533-3.313 3.883-0.843 7.899-1.714 10.525-3.308 3.551-2.151 5.474-6.118 7.17-9.618 1.228-2.531 2.496-5.148 4.005-6.007 0.085-0.05 0.215-0.108 0.463-0.108 2.827 0 8.759 5.943 12.177 11.262 0.867 1.341 2.473 4.028 4.331 7.139 5.557 9.298 13.166 22.033 17.14 26.301 3.581 3.837 9.378 11.214 7.952 17.541-1.044 4.909-6.602 8.901-7.913 9.784-0.476 0.108-1.065 0.163-1.758 0.163-7.606 0-22.662-6.328-30.751-9.728l-1.197-0.503c-4.517-1.894-11.891-3.087-19.022-4.241-5.674-0.919-13.444-2.176-14.732-3.312-1.044-1.171 0.167-4.978 1.235-8.337 0.769-2.414 1.563-4.91 1.998-7.523 0.617-4.168-0.109-7.561-0.691-10.287z"/>
</g></g></svg>
